<?xml version="1.0" encoding="utf-8"?>
<!-- Generator: Adobe Illustrator 23.0.0, SVG Export Plug-In . SVG Version: 6.00 Build 0)  -->
<svg version="1.1" id="Layer_1" xmlns="http://www.w3.org/2000/svg" xmlns:xlink="http://www.w3.org/1999/xlink" x="0px" y="0px"
	 viewBox="0 0 970 129" style="enable-background:new 0 0 970 129;" xml:space="preserve">
<style type="text/css">
	.st0{fill:#CC1E4A;}
</style>
<path class="st0" d="M970,122.84V10.67c-0.15,0.01-0.29,0.02-0.45,0.02c-0.19,0-0.37-0.01-0.56-0.03
	c-3.36,12.32-15.15,17.7-30.06,17.7H32.06c-16.9,0-30.72-8.6-31.96-24.95c-0.03,0-0.07,0-0.1,0v120.16c0.04,0,0.08-0.01,0.12-0.01
	C1.47,107.76,14.3,101,31.06,101h906.88c15.81,0,28.92,7.4,31.56,21.86C969.67,122.85,969.83,122.84,970,122.84z"/>
</svg>
