<?xml version="1.0" encoding="utf-8"?>
<!-- Generator: Adobe Illustrator 23.0.0, SVG Export Plug-In . SVG Version: 6.00 Build 0)  -->
<svg version="1.1" id="Layer_1" xmlns="http://www.w3.org/2000/svg" xmlns:xlink="http://www.w3.org/1999/xlink" x="0px" y="0px"
	 viewBox="0 0 970.22 49.5" style="enable-background:new 0 0 970.22 49.5;" xml:space="preserve">
<style type="text/css">
	.st0{fill:#CC1E4A;}
</style>
<path class="st0" d="M940.4,19.84c-165.23-0.03-330.45-0.06-495.68-0.04c0,0,0,0,0,0c-136.79-0.01-273.57-0.01-410.36-0.02
	c-15.71,0-28.17-5.29-34.23-21l0,49c5.2-13.87,16.16-18.03,29.85-18.02c165.23,0.03,330.45,0.06,495.68,0.04c0,0,0,0,0,0
	c136.79,0.01,273.57,0.01,410.36,0.02c15.71,0,28.17,5.29,34.23,21l0-49C965.05,15.68,954.09,19.84,940.4,19.84z"/>
</svg>
