<?xml version="1.0" encoding="utf-8"?>
<!-- Generator: Adobe Illustrator 23.0.0, SVG Export Plug-In . SVG Version: 6.00 Build 0)  -->
<svg version="1.1" id="Layer_1" xmlns="http://www.w3.org/2000/svg" xmlns:xlink="http://www.w3.org/1999/xlink" x="0px" y="0px"
	 viewBox="0 0 964.15 49.5" style="enable-background:new 0 0 964.15 49.5;" xml:space="preserve">
<style type="text/css">
	.st0{fill:#CC1E4A;}
</style>
<path class="st0" d="M934.43,19.84c-164.35-0.03-328.71-0.06-493.06-0.04c0,0,0,0,0,0c-136.07-0.01-272.13-0.01-408.2-0.02
	c-15.62,0-28.02-5.29-34.05-21l0,49C4.3,33.91,15.19,29.75,28.81,29.75c164.35,0.03,328.71,0.06,493.06,0.04c0,0,0,0,0,0
	c136.07,0.01,272.13,0.01,408.2,0.02c15.62,0,28.02,5.29,34.05,21l0-49C958.95,15.68,948.05,19.84,934.43,19.84z"/>
</svg>
